<svg width="143" height="31" viewBox="0 0 143 31" fill="none" xmlns="http://www.w3.org/2000/svg">
<path d="M45.5273 3.31381H54.9138C59.647 3.31381 62.909 6.46394 62.909 11.2131C62.909 15.9463 59.535 19.1124 54.6739 19.1124H50.3565V26.3881H45.5273V3.31381ZM50.3565 7.13554V15.3387H53.6185C56.3849 15.3387 57.9999 13.8675 57.9999 11.2291C57.9999 8.60667 56.4009 7.13554 53.6345 7.13554H50.3565ZM64.7965 26.3881V9.24629H69.4658V26.3881H64.7965ZM67.1312 7.35941C65.724 7.35941 64.6366 6.28804 64.6366 4.94484C64.6366 3.58565 65.724 2.53027 67.1312 2.53027C68.5383 2.53027 69.6257 3.58565 69.6257 4.94484C69.6257 6.28804 68.5383 7.35941 67.1312 7.35941ZM87.5037 15.6265H83.1703C82.8984 13.8196 81.6992 12.5403 79.7803 12.5403C77.4777 12.5403 76.0385 14.4912 76.0385 17.8012C76.0385 21.1752 77.4777 23.0941 79.7963 23.0941C81.6672 23.0941 82.8825 21.9747 83.1703 20.1038H87.5197C87.2798 24.1494 84.2576 26.7559 79.7483 26.7559C74.5834 26.7559 71.3053 23.3979 71.3053 17.8012C71.3053 12.3005 74.5834 8.87851 79.7163 8.87851C84.3536 8.87851 87.2958 11.7408 87.5037 15.6265ZM104.694 15.6265H100.361C100.089 13.8196 98.8896 12.5403 96.9707 12.5403C94.6681 12.5403 93.229 14.4912 93.229 17.8012C93.229 21.1752 94.6681 23.0941 96.9867 23.0941C98.8576 23.0941 100.073 21.9747 100.361 20.1038H104.71C104.47 24.1494 101.448 26.7559 96.9388 26.7559C91.7738 26.7559 88.4958 23.3979 88.4958 17.8012C88.4958 12.3005 91.7738 8.87851 96.9068 8.87851C101.544 8.87851 104.486 11.7408 104.694 15.6265ZM111.155 16.1222L116.975 9.24629H122.268L115.728 16.6019L122.588 26.3881H117.215L112.306 19.4163L111.091 20.7275V26.3881H106.422V3.31381H111.091V16.1222H111.155ZM128.505 7.08757V14.4432H132.663C135.093 14.4432 136.517 13.052 136.517 10.7654C136.517 8.52671 135.013 7.08757 132.615 7.08757H128.505ZM128.505 17.9451V26.3881H123.676V3.31381H133.127C138.435 3.31381 141.474 6.11215 141.474 10.6694C141.474 13.6277 139.938 16.1862 137.284 17.2256L142.145 26.3881H136.676L132.375 17.9451H128.505Z" fill="white"/>
<path d="M14.2188 1.86463C14.2188 0.834824 15.0536 0 16.0834 0L26.5719 0C32.6221 0 37.5267 4.9046 37.5267 10.9547C37.5267 17.0049 32.6221 21.9095 26.572 21.9095H16.0834C15.0536 21.9095 14.2188 21.0746 14.2188 20.0448V1.86463Z" fill="#F4A602"/>
<rect x="14.2188" y="23.0752" width="11.887" height="7.9247" rx="1.86463" fill="#F4A602"/>
<rect x="9.32422" y="3.26074" width="15.6163" height="2.33079" rx="0.699238" fill="#F4A602"/>
<rect y="7.92383" width="24.2403" height="2.33079" rx="0.699238" fill="#F4A602"/>
<rect x="3.49609" y="12.5859" width="21.4433" height="2.33079" rx="0.699238" fill="#F4A602"/>
</svg>
